<svg width="28" height="27" viewBox="0 0 28 27" fill="none" xmlns="http://www.w3.org/2000/svg">
<path fill-rule="evenodd" clip-rule="evenodd" d="M0.666992 13.4167C0.666992 6.00685 6.67384 0 14.0837 0C21.4935 0 27.5003 6.00685 27.5003 13.4167C27.5003 20.8265 21.4935 26.8333 14.0837 26.8333C6.67384 26.8333 0.666992 20.8265 0.666992 13.4167Z" fill="#FF0000"/>
<path fill-rule="evenodd" clip-rule="evenodd" d="M20.9401 10.1034C20.7756 9.47117 20.2906 8.97329 19.6748 8.80431C18.5589 8.49722 14.0837 8.49722 14.0837 8.49722C14.0837 8.49722 9.60843 8.49722 8.49241 8.80431C7.87662 8.97329 7.39167 9.47117 7.22709 10.1034C6.9281 11.2493 6.9281 13.6403 6.9281 13.6403C6.9281 13.6403 6.9281 16.0311 7.22709 17.1771C7.39167 17.8094 7.87662 18.3073 8.49241 18.4763C9.60843 18.7833 14.0837 18.7833 14.0837 18.7833C14.0837 18.7833 18.5589 18.7833 19.6748 18.4763C20.2906 18.3073 20.7756 17.8094 20.9401 17.1771C21.2392 16.0311 21.2392 13.6403 21.2392 13.6403C21.2392 13.6403 21.2392 11.2493 20.9401 10.1034" fill="white"/>
<path fill-rule="evenodd" clip-rule="evenodd" d="M12.742 16.1V11.6278L16.3198 13.864L12.742 16.1Z" fill="#FF0000"/>
</svg>
