<svg width="28" height="27" viewBox="0 0 28 27" fill="none" xmlns="http://www.w3.org/2000/svg">
<path fill-rule="evenodd" clip-rule="evenodd" d="M0.500488 13.4167C0.500488 6.00685 6.50733 0 13.9172 0C21.327 0 27.3338 6.00685 27.3338 13.4167C27.3338 20.8265 21.327 26.8333 13.9172 26.8333C6.50733 26.8333 0.500488 20.8265 0.500488 13.4167Z" fill="white"/>
</mask>
<g mask="url(#mask0)">
<path fill-rule="evenodd" clip-rule="evenodd" d="M0.500488 13.4167C0.500488 6.00685 6.50733 0 13.9172 0C21.327 0 27.3338 6.00685 27.3338 13.4167C27.3338 20.8265 21.327 26.8333 13.9172 26.8333C6.50733 26.8333 0.500488 20.8265 0.500488 13.4167Z" fill="#F9FAFE"/>
<path fill-rule="evenodd" clip-rule="evenodd" d="M13.9178 6.26111C11.9745 6.26111 11.7306 6.26961 10.9673 6.30434C10.2055 6.33922 9.68557 6.45983 9.23059 6.63678C8.75996 6.81955 8.36073 7.06403 7.963 7.46191C7.56497 7.85965 7.32048 8.25887 7.13712 8.72935C6.95972 9.18448 6.83897 9.70461 6.80468 10.4661C6.77054 11.2294 6.7616 11.4734 6.7616 13.4167C6.7616 15.3601 6.77025 15.6032 6.80483 16.3665C6.83986 17.1283 6.96047 17.6483 7.13727 18.1032C7.32019 18.5739 7.56467 18.9731 7.96255 19.3708C8.36014 19.7689 8.75936 20.0139 9.2297 20.1967C9.68497 20.3736 10.2051 20.4943 10.9667 20.5291C11.73 20.5639 11.9737 20.5724 13.9169 20.5724C15.8604 20.5724 16.1036 20.5639 16.8668 20.5291C17.6286 20.4943 18.1492 20.3736 18.6045 20.1967C19.0749 20.0139 19.4736 19.7689 19.8712 19.3708C20.2692 18.9731 20.5137 18.5739 20.697 18.1034C20.8729 17.6482 20.9937 17.1281 21.0295 16.3666C21.0638 15.6034 21.0727 15.3601 21.0727 13.4167C21.0727 11.4734 21.0638 11.2295 21.0295 10.4662C20.9937 9.70446 20.8729 9.18448 20.697 8.7295C20.5137 8.25887 20.2692 7.85965 19.8712 7.46191C19.4731 7.06388 19.0751 6.8194 18.604 6.63678C18.1478 6.45983 17.6276 6.33922 16.8658 6.30434C16.1025 6.26961 15.8595 6.26111 13.9156 6.26111H13.9178ZM13.276 7.55063C13.4665 7.55033 13.6791 7.55063 13.9179 7.55063C15.8285 7.55063 16.0549 7.55749 16.8094 7.59177C17.507 7.62368 17.8857 7.74025 18.1379 7.8382C18.4719 7.96789 18.7099 8.12293 18.9602 8.37338C19.2107 8.62382 19.3657 8.86235 19.4957 9.19627C19.5937 9.44821 19.7104 9.82686 19.7421 10.5245C19.7764 11.2789 19.7839 11.5055 19.7839 13.4151C19.7839 15.3248 19.7764 15.5514 19.7421 16.3057C19.7102 17.0034 19.5937 17.382 19.4957 17.634C19.366 17.9679 19.2107 18.2057 18.9602 18.456C18.7098 18.7064 18.472 18.8614 18.1379 18.9911C17.886 19.0895 17.507 19.2058 16.8094 19.2377C16.055 19.272 15.8285 19.2795 13.9179 19.2795C12.0072 19.2795 11.7808 19.272 11.0264 19.2377C10.3288 19.2055 9.9501 19.0889 9.69772 18.991C9.36379 18.8613 9.12527 18.7063 8.87482 18.4558C8.62437 18.2054 8.46934 17.9674 8.33934 17.6334C8.2414 17.3814 8.12467 17.0028 8.09292 16.3051C8.05863 15.5508 8.05177 15.3242 8.05177 13.4133C8.05177 11.5025 8.05863 11.2771 8.09292 10.5227C8.12482 9.82508 8.2414 9.44642 8.33934 9.19419C8.46904 8.86026 8.62437 8.62174 8.87482 8.37129C9.12527 8.12084 9.36379 7.9658 9.69772 7.83581C9.94995 7.73742 10.3288 7.62114 11.0264 7.58909C11.6865 7.55928 11.9423 7.55033 13.276 7.54884V7.55063ZM17.7374 8.73876C17.2634 8.73876 16.8787 9.12293 16.8787 9.59714C16.8787 10.0712 17.2634 10.4558 17.7374 10.4558C18.2115 10.4558 18.5961 10.0712 18.5961 9.59714C18.5961 9.12308 18.2115 8.73847 17.7374 8.73847V8.73876ZM13.9178 9.74204C11.8885 9.74204 10.2431 11.3874 10.2431 13.4168C10.2431 15.4461 11.8885 17.0907 13.9178 17.0907C15.9472 17.0907 17.592 15.4461 17.592 13.4168C17.592 11.3874 15.9471 9.74204 13.9177 9.74204H13.9178ZM13.9178 11.0315C15.235 11.0315 16.303 12.0993 16.303 13.4167C16.303 14.734 15.235 15.8019 13.9178 15.8019C12.6004 15.8019 11.5326 14.734 11.5326 13.4167C11.5326 12.0993 12.6004 11.0315 13.9178 11.0315V11.0315Z" fill="black"/>
</g>
</svg>
