<svg width="28" height="27" viewBox="0 0 28 27" fill="none" xmlns="http://www.w3.org/2000/svg">
<path fill-rule="evenodd" clip-rule="evenodd" d="M0.833496 13.4167C0.833496 6.00685 6.84034 0 14.2502 0C21.66 0 27.6668 6.00685 27.6668 13.4167C27.6668 20.8265 21.66 26.8333 14.2502 26.8333C6.84034 26.8333 0.833496 20.8265 0.833496 13.4167Z" fill="#4C6C91"/>
<path fill-rule="evenodd" clip-rule="evenodd" d="M14.952 17.8196C14.952 17.8196 15.2103 17.7914 15.3426 17.652C15.4637 17.5242 15.4595 17.283 15.4595 17.283C15.4595 17.283 15.4434 16.1569 15.976 15.9906C16.501 15.8271 17.1751 17.0796 17.8904 17.5613C18.4308 17.9254 18.841 17.8457 18.841 17.8457L20.7525 17.8196C20.7525 17.8196 21.7521 17.7591 21.2782 16.9876C21.239 16.9243 21.0017 16.4166 19.8573 15.3736C18.6583 14.2819 18.8193 14.4584 20.2626 12.5697C21.1417 11.4195 21.4931 10.7173 21.3832 10.4171C21.2789 10.1299 20.6322 10.2061 20.6322 10.2061L18.4805 10.2192C18.4805 10.2192 18.3209 10.1979 18.2026 10.2673C18.0871 10.3353 18.0122 10.494 18.0122 10.494C18.0122 10.494 17.672 11.3838 17.2178 12.1409C16.2595 13.7377 15.8766 13.8222 15.7199 13.7233C15.3552 13.4917 15.4462 12.7943 15.4462 12.299C15.4462 10.751 15.6856 10.1058 14.9807 9.93885C14.7469 9.8832 14.5747 9.84679 13.9763 9.8406C13.2084 9.83304 12.5588 9.84335 12.1907 10.0199C11.9457 10.1374 11.7567 10.3999 11.8722 10.415C12.0143 10.4335 12.3363 10.5002 12.5071 10.7283C12.7275 11.0231 12.7198 11.684 12.7198 11.684C12.7198 11.684 12.8465 13.5061 12.4238 13.7322C12.134 13.8875 11.7364 13.5707 10.8818 12.1217C10.4443 11.3797 10.1139 10.5593 10.1139 10.5593C10.1139 10.5593 10.0502 10.4061 9.93611 10.3236C9.79822 10.224 9.60573 10.1931 9.60573 10.1931L7.56116 10.2061C7.56116 10.2061 7.25387 10.2144 7.14118 10.3456C7.04109 10.4617 7.13348 10.7029 7.13348 10.7029C7.13348 10.7029 8.73428 14.3794 10.5472 16.2325C12.2096 17.9309 14.0967 17.8196 14.0967 17.8196H14.952Z" fill="white"/>
</svg>
